<svg xmlns="http://www.w3.org/2000/svg" width="575.691" height="438" viewBox="0 0 575.691 438">
  <g id="blue" transform="translate(0)">
    <path id="Path_1" data-name="Path 1" d="M372.009,246.754a.945.945,0,0,1-.942-.879,33.4,33.4,0,0,0-33.216-30.945c-1.007,0-2.066.051-3.145.152a.945.945,0,0,1-.908-.471,39.681,39.681,0,0,0-72.565,8.631.941.941,0,0,1-.929.682l-.251-.008c-.131,0-.261-.009-.393-.009A27.986,27.986,0,0,0,232.388,246a.945.945,0,0,1-.925.75h-63.3a.945.945,0,1,1,0-1.89h62.548a29.893,29.893,0,0,1,28.92-22.847,41.571,41.571,0,0,1,75.507-8.868c.929-.072,1.841-.109,2.718-.109a35.291,35.291,0,0,1,35.1,32.7.945.945,0,0,1-.876,1.009Z" transform="translate(-167.214 -144.838)" fill="#cbcbcb"/>
    <path id="Path_2" data-name="Path 2" d="M379.719,291.224H224.752a.945.945,0,1,1,0-1.89H379.719a.945.945,0,1,1,0,1.89Z" transform="translate(-186.167 -177.193)" fill="#cbcbcb"/>
    <path id="Path_3" data-name="Path 3" d="M255.412,311.825H203.442a.945.945,0,1,1,0-1.89h51.971a.945.945,0,1,1,0,1.89Z" transform="translate(-179.03 -184.092)" fill="#cbcbcb"/>
    <path id="Path_4" data-name="Path 4" d="M313.926,568.62c0,38.416-40.275,56.8-40.275,56.8s-40.688-18.382-41.514-56.8c-.486-22.58,18.309-40.894,40.894-40.894A40.894,40.894,0,0,1,313.926,568.62Z" transform="translate(-188.954 -257.03)" fill="#e5e5e5"/>
    <path id="Path_5" data-name="Path 5" d="M132.45,550.643H105.187l-3.3-13.218h33.872Z" transform="translate(-34.12 -179.985)" fill="#cbcbcb"/>
    <rect id="Rectangle_1" data-name="Rectangle 1" width="25.404" height="13.239" transform="translate(71.996 393.264)" fill="#fff"/>
    <path id="Path_6" data-name="Path 6" d="M300.968,725.354H275.151V711.7h25.817Zm-25.4-.413h24.991V712.115H275.564Z" transform="translate(-203.362 -318.645)" fill="#cbcbcb"/>
    <path id="Path_7" data-name="Path 7" d="M129.33,558.7H118.915l-1.2-1.878h12.805Z" transform="translate(-39.425 -186.48)" fill="#cbcbcb"/>
    <rect id="Rectangle_2" data-name="Rectangle 2" width="0.413" height="20.241" transform="translate(71.273 370.659)" fill="#cbcbcb"/>
    <rect id="Rectangle_3" data-name="Rectangle 3" width="0.413" height="20.241" transform="translate(97.71 370.659)" fill="#cbcbcb"/>
    <path id="Path_8" data-name="Path 8" d="M300.658,614.5l-.252-.327c11.933-9.2,26.158-24.968,26.158-47.814a40.632,40.632,0,0,0-24.85-37.49l.161-.38a41.044,41.044,0,0,1,25.1,37.871C326.978,589.376,312.665,605.244,300.658,614.5Z" transform="translate(-211.82 -257.287)" fill="#cbcbcb"/>
    <path id="Path_9" data-name="Path 9" d="M280.784,614.565l-.252-.327c11.933-9.2,26.159-24.968,26.159-47.814a40.68,40.68,0,0,0-24.567-37.369l.164-.379A41.093,41.093,0,0,1,307.1,566.424C307.1,589.438,292.791,605.306,280.784,614.565Z" transform="translate(-205.164 -257.348)" fill="#cbcbcb"/>
    <path id="Path_10" data-name="Path 10" d="M293.093,614.565c-12.007-9.259-26.319-25.127-26.319-48.141a41.092,41.092,0,0,1,24.817-37.749l.164.379a40.68,40.68,0,0,0-24.568,37.37c0,22.846,14.225,38.611,26.158,47.814Z" transform="translate(-200.556 -257.348)" fill="#cbcbcb"/>
    <path id="Path_11" data-name="Path 11" d="M273.219,614.468c-12.007-9.259-26.319-25.127-26.319-48.141a41.016,41.016,0,0,1,25.27-37.941l.159.381a40.6,40.6,0,0,0-25.016,37.56c0,22.846,14.225,38.612,26.158,47.814Z" transform="translate(-193.9 -257.251)" fill="#cbcbcb"/>
    <rect id="Rectangle_4" data-name="Rectangle 4" width="0.413" height="86.745" transform="translate(83.872 270.695)" fill="#cbcbcb"/>
    <line id="Line_1" data-name="Line 1" y1="7.575" x2="7.575" transform="translate(71.996 390.409)" fill="#fff"/>
    <rect id="Rectangle_5" data-name="Rectangle 5" width="10.712" height="0.413" transform="translate(71.852 397.838) rotate(-45)" fill="#cbcbcb"/>
    <line id="Line_2" data-name="Line 2" y1="11.841" x2="11.261" transform="translate(71.996 390.28)" fill="#fff"/>
    <rect id="Rectangle_6" data-name="Rectangle 6" width="16.341" height="0.413" transform="translate(71.849 401.98) rotate(-46.444)" fill="#cbcbcb"/>
    <rect id="Rectangle_7" data-name="Rectangle 7" width="30.981" height="3.718" transform="translate(68.794 390.28)" fill="#fff"/>
    <path id="Path_12" data-name="Path 12" d="M301.732,711.346H270.338v-4.131h31.394Zm-30.981-.413h30.567v-3.3H270.751Z" transform="translate(-201.75 -317.142)" fill="#cbcbcb"/>
    <path id="Path_13" data-name="Path 13" d="M445.118,429.239c0,25.356-26.583,37.489-26.583,37.489s-26.856-12.133-27.4-37.489c-.32-14.9,12.085-26.992,26.992-26.992a26.992,26.992,0,0,1,26.992,26.992Z" transform="translate(-242.203 -215.008)" fill="#e5e5e5"/>
    <path id="Path_14" data-name="Path 14" d="M268.491,376.333H250.5l-2.181-8.725h22.357Z" transform="translate(-83.161 -123.113)" fill="#cbcbcb"/>
    <rect id="Rectangle_8" data-name="Rectangle 8" width="16.768" height="8.738" transform="translate(167.948 268.141)" fill="#fff"/>
    <path id="Path_15" data-name="Path 15" d="M436.566,532.691h-17.04V523.68h17.04Zm-16.768-.273h16.5v-8.466H419.8Z" transform="translate(-251.713 -255.676)" fill="#cbcbcb"/>
    <path id="Path_16" data-name="Path 16" d="M266.431,381.649h-6.874l-.789-1.24h8.452Z" transform="translate(-86.662 -127.4)" fill="#cbcbcb"/>
    <rect id="Rectangle_9" data-name="Rectangle 9" width="0.273" height="13.36" transform="translate(167.471 253.22)" fill="#cbcbcb"/>
    <rect id="Rectangle_10" data-name="Rectangle 10" width="0.273" height="13.36" transform="translate(184.921 253.22)" fill="#cbcbcb"/>
    <path id="Path_17" data-name="Path 17" d="M436.361,459.525l-.166-.216c7.877-6.074,17.266-16.48,17.266-31.559A26.819,26.819,0,0,0,437.058,403l.106-.251a27.091,27.091,0,0,1,16.569,25C453.733,442.94,444.286,453.413,436.361,459.525Z" transform="translate(-257.296 -215.177)" fill="#cbcbcb"/>
    <path id="Path_18" data-name="Path 18" d="M423.243,459.565l-.166-.216c7.877-6.074,17.266-16.48,17.266-31.559a26.85,26.85,0,0,0-16.216-24.665l.108-.25a27.123,27.123,0,0,1,16.38,24.916C440.615,442.98,431.168,453.454,423.243,459.565Z" transform="translate(-252.903 -215.218)" fill="#cbcbcb"/>
    <path id="Path_19" data-name="Path 19" d="M431.367,459.565C423.443,453.454,414,442.98,414,427.79a27.123,27.123,0,0,1,16.38-24.916l.108.25a26.851,26.851,0,0,0-16.216,24.665c0,15.079,9.389,25.485,17.266,31.559Z" transform="translate(-249.861 -215.218)" fill="#cbcbcb"/>
    <path id="Path_20" data-name="Path 20" d="M418.25,459.5c-7.925-6.111-17.372-16.585-17.372-31.775a27.072,27.072,0,0,1,16.679-25.043l.105.252a26.8,26.8,0,0,0-16.512,24.791c0,15.08,9.389,25.485,17.266,31.559Z" transform="translate(-245.468 -215.154)" fill="#cbcbcb"/>
    <rect id="Rectangle_11" data-name="Rectangle 11" width="0.273" height="57.256" transform="translate(175.787 187.24)" fill="#cbcbcb"/>
    <line id="Line_3" data-name="Line 3" y1="5" x2="5" transform="translate(167.948 266.256)" fill="#fff"/>
    <rect id="Rectangle_12" data-name="Rectangle 12" width="7.07" height="0.273" transform="translate(167.854 271.16) rotate(-45)" fill="#cbcbcb"/>
    <line id="Line_4" data-name="Line 4" y1="7.816" x2="7.433" transform="translate(167.948 266.171)" fill="#fff"/>
    <rect id="Rectangle_13" data-name="Rectangle 13" width="10.786" height="0.273" transform="translate(167.852 273.893) rotate(-46.444)" fill="#cbcbcb"/>
    <rect id="Rectangle_14" data-name="Rectangle 14" width="20.448" height="2.454" transform="translate(165.835 266.171)" fill="#fff"/>
    <path id="Path_21" data-name="Path 21" d="M437.07,523.445H416.348v-2.726H437.07Zm-20.448-.273H436.8v-2.181H416.621Z" transform="translate(-250.649 -254.684)" fill="#cbcbcb"/>
    <path id="Path_22" data-name="Path 22" d="M811.734,475.452a.677.677,0,0,0,.675-.63,23.937,23.937,0,0,1,23.808-22.181c.722,0,1.481.037,2.255.109a.677.677,0,0,0,.651-.338,28.443,28.443,0,0,1,52.014,6.186.674.674,0,0,0,.666.489l.18-.005c.094,0,.187-.006.282-.006a20.06,20.06,0,0,1,19.548,15.839.677.677,0,0,0,.663.538h45.376a.677.677,0,0,0,0-1.355H913.017a21.427,21.427,0,0,0-20.73-16.376,29.8,29.8,0,0,0-54.122-6.356c-.666-.052-1.32-.078-1.948-.078a25.3,25.3,0,0,0-25.16,23.44.677.677,0,0,0,.628.723Z" transform="translate(-382.837 -226.554)" fill="#cbcbcb"/>
    <path id="Path_23" data-name="Path 23" d="M823.851,507.328H934.929a.677.677,0,1,0,0-1.355H823.851a.677.677,0,1,0,0,1.355Z" transform="translate(-386.896 -249.746)" fill="#cbcbcb"/>
    <path id="Path_24" data-name="Path 24" d="M950.127,522.094h37.252a.677.677,0,1,0,0-1.355H950.127a.677.677,0,1,0,0,1.355Z" transform="translate(-429.186 -254.691)" fill="#cbcbcb"/>
    <path id="Path_25" data-name="Path 25" d="M521.335,643.438H519.1l-1.061-8.6h3.291Z" transform="translate(-173.494 -212.609)" fill="#9f616a"/>
    <path id="Path_26" data-name="Path 26" d="M687.44,770.288h-7.189V770.2a2.8,2.8,0,0,1,2.8-2.8h4.391Z" transform="translate(-339.031 -337.298)" fill="#2f2e41"/>
    <path id="Path_27" data-name="Path 27" d="M562.569,637.7l-1.911,1.149-5.338-6.825,2.821-1.695Z" transform="translate(-185.977 -211.1)" fill="#9f616a"/>
    <path id="Path_28" data-name="Path 28" d="M726.349,766.942l-.047-.078a2.8,2.8,0,0,1,.957-3.84l3.764-2.261,1.488,2.476Z" transform="translate(-354.32 -335.075)" fill="#2f2e41"/>
    <path id="Path_29" data-name="Path 29" d="M688.553,747.221h-.038a29.932,29.932,0,0,1-3.246-.187c-.411-.041-.856-.085-1.393-.129l-.018,0c-.366-.109-.377-3.544-.221-15.3.08-6.023.17-12.85.062-17.2v-.043l.032-.028a16.345,16.345,0,0,1,14.382-3.651l.039.008.02.035c2.191,3.707,5.5,9.048,8.7,14.212,7.345,11.856,9.445,15.342,9.215,15.605l-.028.021c-.5.251-.878.444-1.2.608a39.5,39.5,0,0,1-3.9,1.759l-.059.024-.043-.047a103.087,103.087,0,0,1-17.49-25.721c-.448,2.879-.992,6.638-1.567,10.61-1.653,11.422-2.77,18.943-3.22,19.4Z" transform="translate(-340.132 -318.166)" fill="#2f2e41"/>
    <path id="Path_30" data-name="Path 30" d="M689.571,699.416a39.036,39.036,0,0,1,13.053,2.185,29.712,29.712,0,0,0-6.661-19.371l-.033-.039.017-.048c1.171-3.382,2.381-6.879,3.462-10.358l-.016-.058a21.556,21.556,0,0,0-4.976-8.328,1.594,1.594,0,0,0-2.176-.11,20.269,20.269,0,0,0-6.532,16.5l0,.018-.005.017c-2.028,6.87-2.764,10.4-3.414,13.512-.474,2.271-.884,4.238-1.708,7.048A42.317,42.317,0,0,1,689.571,699.416Z" transform="translate(-339.142 -302.304)" fill="#cbcbcb"/>
    <path id="Path_31" data-name="Path 31" d="M531.5,564.419l-6.6,14.362-3.769-3.815Z" transform="translate(-174.528 -189.025)" opacity="0.1"/>
    <circle id="Ellipse_3" data-name="Ellipse 3" cx="4.694" cy="4.694" r="4.694" transform="translate(349.457 350.309)" fill="#9f616a"/>
    <path id="Path_32" data-name="Path 32" d="M691.135,648.505h7.453v-3.249c-1.636-.65-3.237-1.2-4.2,0A3.249,3.249,0,0,0,691.135,648.505Z" transform="translate(-342.676 -296.154)" fill="#2f2e41"/>
    <path id="Path_33" data-name="Path 33" d="M700.09,644.752c4.455,0,5.7,5.585,5.7,8.735,0,1.757-.795,2.385-2.043,2.6l-.441-2.352-1.033,2.453c-.351,0-.719-.005-1.1-.012l-.35-.721-.781.708c-3.128,0-5.655.461-5.655-2.674C694.387,650.337,695.481,644.752,700.09,644.752Z" transform="translate(-343.765 -296.223)" fill="#2f2e41"/>
    <path id="Path_34" data-name="Path 34" d="M772.668,252.415c0,123.708-129.694,182.9-129.694,182.9S511.95,376.123,509.29,252.415c-1.564-72.713,58.959-131.689,131.689-131.689A131.69,131.69,0,0,1,772.668,252.415Z" transform="translate(-281.766 -120.725)" fill="#0880ae"/>
    <path id="Path_35" data-name="Path 35" d="M545.242,641h-2.734l-1.3-10.544h4.034Z" transform="translate(-181.252 -211.14)" fill="#ffb7b7"/>
    <path id="Path_36" data-name="Path 36" d="M538.556,645.132h5.272v3.319h-8.592a3.32,3.32,0,0,1,3.32-3.32Z" transform="translate(-179.252 -216.056)" fill="#2f2e41"/>
    <path id="Path_37" data-name="Path 37" d="M560.664,641h-2.734l-1.3-10.544h4.035Z" transform="translate(-186.416 -211.14)" fill="#ffb7b7"/>
    <path id="Path_38" data-name="Path 38" d="M553.978,645.132h5.272v3.319h-8.592a3.32,3.32,0,0,1,3.32-3.32Z" transform="translate(-184.417 -216.056)" fill="#2f2e41"/>
    <path id="Path_40" data-name="Path 40" d="M712.191,742.63l-3.009-.144a1,1,0,0,1-.956-1l-.21-30.45a1,1,0,0,1,1.148-1l12.04,1.748a1,1,0,0,1,.859.986l1.548,28.215a1,1,0,0,1-1,1.011h-3.244a1,1,0,0,1-.991-.848S715.921,719.99,715.584,720s-2.35,21.745-2.35,21.745a1.007,1.007,0,0,1-1,.884Z" transform="translate(-348.329 -318.085)" fill="#2f2e41"/>
    <path id="Path_44" data-name="Path 44" d="M559.526,462.566H471.733L461.091,420H570.167Z" transform="translate(-154.42 -140.659)" fill="#3f3d56"/>
    <rect id="Rectangle_15" data-name="Rectangle 15" width="81.807" height="42.632" transform="translate(320.305 394.703)" fill="#fff"/>
    <path id="Path_45" data-name="Path 45" d="M730.942,757.138H647.8V713.176h83.137Zm-81.807-1.33h80.477v-41.3H649.135Z" transform="translate(-328.164 -319.138)" fill="#3f3d56"/>
    <path id="Path_46" data-name="Path 46" d="M549.478,488.5H515.94l-3.849-6.048h41.236Z" transform="translate(-171.5 -161.574)" fill="#3f3d56"/>
    <rect id="Rectangle_16" data-name="Rectangle 16" width="1.33" height="65.18" transform="translate(317.977 321.908)" fill="#3f3d56"/>
    <rect id="Rectangle_17" data-name="Rectangle 17" width="1.33" height="65.18" transform="translate(403.11 321.908)" fill="#3f3d56"/>
    <path id="Path_47" data-name="Path 47" d="M729.943,400.172l-.812-1.053c38.428-29.634,84.236-80.4,84.236-153.973a130.845,130.845,0,0,0-80.024-120.728l.518-1.225A132.173,132.173,0,0,1,814.7,245.146C814.7,319.257,768.607,370.355,729.943,400.172Z" transform="translate(-355.401 -121.552)" fill="#3f3d56"/>
    <path id="Path_48" data-name="Path 48" d="M665.942,400.37l-.812-1.054c38.428-29.634,84.237-80.4,84.237-153.973a131,131,0,0,0-79.113-120.339l.527-1.221A132.328,132.328,0,0,1,750.7,245.344C750.7,319.455,704.607,370.554,665.942,400.37Z" transform="translate(-333.967 -121.75)" fill="#3f3d56"/>
    <path id="Path_49" data-name="Path 49" d="M705.58,400.37c-38.664-29.816-84.754-80.915-84.754-155.026a132.328,132.328,0,0,1,79.917-121.56l.527,1.221a131,131,0,0,0-79.114,120.339c0,73.57,45.808,124.338,84.236,153.973Z" transform="translate(-319.129 -121.75)" fill="#3f3d56"/>
    <path id="Path_50" data-name="Path 50" d="M641.58,400.058c-38.665-29.816-84.755-80.915-84.755-155.026A132.081,132.081,0,0,1,638.2,122.852l.513,1.228a130.753,130.753,0,0,0-80.559,120.952c0,73.571,45.808,124.339,84.237,153.972Z" transform="translate(-297.695 -121.438)" fill="#3f3d56"/>
    <rect id="Rectangle_18" data-name="Rectangle 18" width="1.33" height="279.341" transform="translate(358.548)" fill="#3f3d56"/>
    <line id="Line_5" data-name="Line 5" y1="24.392" x2="24.392" transform="translate(320.305 385.508)" fill="#fff"/>
    <rect id="Rectangle_19" data-name="Rectangle 19" width="34.495" height="1.33" transform="translate(319.838 409.429) rotate(-45)" fill="#3f3d56"/>
    <line id="Line_6" data-name="Line 6" y1="38.131" x2="36.264" transform="translate(320.305 385.092)" fill="#fff"/>
    <rect id="Rectangle_20" data-name="Rectangle 20" width="52.621" height="1.33" transform="translate(319.828 422.766) rotate(-46.444)" fill="#3f3d56"/>
    <rect id="Rectangle_21" data-name="Rectangle 21" width="99.765" height="11.972" transform="translate(309.996 385.092)" fill="#fff"/>
    <path id="Path_51" data-name="Path 51" d="M733.4,712.027H632.3v-13.3H733.4Zm-99.765-1.33h98.435V700.056H633.635Z" transform="translate(-322.973 -314.299)" fill="#3f3d56"/>
    <path id="Path_52" data-name="Path 52" d="M680.823,704.487a1.829,1.829,0,0,0,1.647-2.27l5.436-3.561-3.1-1.339-4.687,3.587a1.839,1.839,0,0,0,.7,3.583Z" transform="translate(-338.56 -313.827)" fill="#9f616a"/>
    <path id="Path_53" data-name="Path 53" d="M687.532,690.642l-.069-.048c-1.294-.952-2.73-1.937-4.119-2.889l-.083-.057.066-.077c2.964-3.468,5.932-7.091,8.8-10.6l-.005-.013.027-.014.011-.014.006.005.017-.009-.078.006L691.223,670a4.447,4.447,0,0,1,.1-4.765,3.774,3.774,0,0,1,4.911-1.121,3.223,3.223,0,0,1,1.415,2.407,2.906,2.906,0,0,1-.77,2.38,100.081,100.081,0,0,1,.4,10.128v.032l-.02.026c-3.06,3.888-6.421,7.755-9.672,11.494Z" transform="translate(-340.039 -302.548)" fill="#cbcbcb"/>
    <path id="Path_56" data-name="Path 56" d="M532.617,589.452a.677.677,0,0,1-.675-.63,23.938,23.938,0,0,0-23.808-22.181c-.722,0-1.481.037-2.255.109a.677.677,0,0,1-.651-.338,28.443,28.443,0,0,0-52.014,6.186.674.674,0,0,1-.666.489l-.18-.005c-.094,0-.187-.006-.282-.006a20.06,20.06,0,0,0-19.548,15.839.677.677,0,0,1-.663.538H386.5a.677.677,0,1,1,0-1.355h44.834a21.427,21.427,0,0,1,20.73-16.376,29.8,29.8,0,0,1,54.122-6.356c.666-.052,1.32-.078,1.948-.078a25.3,25.3,0,0,1,25.16,23.44.677.677,0,0,1-.628.723Z" transform="translate(-240.426 -264.733)" fill="#cbcbcb"/>
    <path id="Path_57" data-name="Path 57" d="M538.144,621.328H427.066a.677.677,0,1,1,0-1.355H538.144a.677.677,0,1,1,0,1.355Z" transform="translate(-254.012 -287.924)" fill="#cbcbcb"/>
    <path id="Path_58" data-name="Path 58" d="M449.042,636.094H411.79a.677.677,0,0,1,0-1.355h37.252a.677.677,0,0,1,0,1.355Z" transform="translate(-248.896 -292.87)" fill="#cbcbcb"/>
  </g>
</svg>
